<!DOCTYPE svg PUBLIC "-//W3C//DTD SVG 20010904//EN" "http://www.w3.org/TR/2001/REC-SVG-20010904/DTD/svg10.dtd">
<svg version="1.0" xmlns="http://www.w3.org/2000/svg" width="892px" height="470px" viewBox="0 0 8920 4700" preserveAspectRatio="xMidYMid meet">
<g id="layer1" fill="#000000" stroke="none">
 <path d="M2105 4470 c-3 -5 -39 -10 -80 -10 -41 0 -77 -4 -80 -10 -3 -5 -39 -10 -80 -10 -41 0 -77 -4 -80 -10 -3 -5 -39 -10 -80 -10 -41 0 -77 -4 -80 -10 -3 -5 -27 -10 -53 -10 -41 0 -87 -20 -344 -148 l-296 -149 -96 -97 c-53 -54 -96 -102 -96 -107 0 -5 -45 -54 -100 -109 -71 -72 -100 -108 -100 -125 0 -13 -5 -27 -10 -30 -6 -3 -10 -30 -10 -60 0 -30 -4 -57 -10 -60 -5 -3 -10 -26 -10 -50 0 -24 -4 -47 -10 -50 -5 -3 -10 -30 -10 -60 0 -30 -4 -57 -10 -60 -6 -4 -10 -60 -10 -135 0 -75 4 -131 10 -135 6 -4 10 -88 10 -220 0 -132 4 -216 10 -220 6 -4 10 -53 10 -115 0 -91 3 -115 20 -145 11 -20 20 -42 20 -49 0 -8 14 -40 30 -71 17 -31 30 -63 30 -71 0 -7 9 -29 20 -49 11 -20 20 -42 20 -50 0 -8 9 -30 20 -50 11 -20 20 -42 20 -49 0 -8 14 -40 30 -71 17 -31 30 -63 30 -70 0 -35 66 -132 136 -200 42 -41 80 -75 85 -75 5 0 77 -67 159 -150 83 -82 155 -150 161 -150 5 0 42 -32 80 -71 58 -59 91 -82 187 -130 63 -33 121 -59 127 -59 7 0 47 -18 90 -40 43 -22 83 -40 90 -40 6 0 56 -23 110 -50 54 -28 104 -50 110 -50 7 0 47 -18 90 -40 43 -22 83 -40 90 -40 6 0 56 -23 110 -50 96 -49 100 -50 186 -50 48 0 91 -4 94 -10 4 -6 75 -10 180 -10 105 0 176 -4 180 -10 4 -6 71 -10 169 -10 94 0 166 -4 172 -10 6 -6 316 -11 869 -12 l860 -3 3 -25 c6 -47 95 -213 135 -252 22 -21 43 -38 48 -38 5 0 28 -18 50 -40 24 -23 51 -40 65 -40 12 0 26 -5 29 -10 3 -6 30 -10 60 -10 30 0 57 -4 60 -10 3 -5 19 -10 35 -10 23 0 49 21 134 104 105 104 146 159 146 196 0 10 5 22 10 25 6 3 10 17 10 30 0 13 4 27 10 30 6 3 10 15 10 26 0 36 24 49 90 49 51 0 65 -4 85 -25 14 -13 25 -28 25 -34 0 -16 226 -239 265 -261 19 -11 49 -20 65 -20 16 0 32 -5 35 -10 3 -6 17 -10 30 -10 13 0 27 -5 30 -10 3 -6 21 -10 40 -10 19 0 37 -4 40 -10 13 -21 45 -8 89 36 25 25 46 50 46 55 0 5 40 50 90 100 49 49 90 95 90 100 0 5 16 25 35 44 31 32 39 35 94 35 33 0 63 4 66 10 4 6 62 10 140 10 78 0 136 4 140 10 4 6 62 10 140 10 78 0 136 4 140 10 4 6 62 10 140 10 78 0 136 4 140 10 3 5 39 10 80 10 41 0 77 5 80 10 3 6 21 10 40 10 19 0 37 5 40 10 3 6 17 10 30 10 13 0 27 4 30 10 3 5 21 10 40 10 19 0 37 5 40 10 3 6 17 10 30 10 13 0 27 5 30 10 3 6 17 10 30 10 13 0 27 5 30 10 3 6 19 10 34 10 15 0 42 7 59 16 31 15 32 18 32 79 0 35 5 67 10 70 6 3 10 46 10 95 0 49 -4 92 -10 95 -5 3 -10 21 -10 40 0 19 -4 37 -10 40 -5 3 -10 26 -10 50 0 24 -4 47 -10 50 -5 3 -10 21 -10 39 0 17 -4 36 -9 42 -5 5 -11 20 -13 34 -2 19 -10 26 -32 28 -16 2 -33 -1 -39 -7 -6 -6 -21 -11 -33 -11 -18 0 -30 -16 -64 -85 -23 -46 -45 -87 -50 -90 -10 -6 -60 38 -60 53 0 5 -12 22 -27 38 -16 16 -34 41 -41 55 -18 35 -50 53 -67 39 -8 -6 -39 -63 -71 -126 -31 -63 -60 -114 -64 -114 -12 0 -90 77 -90 89 0 12 -128 141 -140 141 -12 0 -120 -109 -120 -121 0 -16 -49 -61 -60 -54 -6 3 -19 26 -30 50 -11 24 -26 49 -33 57 -7 7 -20 29 -30 49 -38 82 -57 75 -114 -39 -20 -43 -43 -87 -51 -100 l-15 -22 -13 26 c-8 14 -14 35 -14 45 0 10 -4 21 -10 24 -5 3 -10 21 -10 40 0 19 -4 37 -10 40 -5 3 -10 17 -10 30 0 13 -4 27 -10 30 -5 3 -10 17 -10 30 0 13 -4 27 -10 30 -5 3 -10 21 -10 39 0 17 -5 37 -11 43 -5 5 -9 38 -7 74 l3 64 33 3 c31 3 62 -15 62 -36 0 -5 13 -23 30 -40 16 -18 30 -36 30 -41 0 -10 50 -61 60 -61 4 0 43 70 86 156 72 145 79 155 101 149 13 -3 38 -19 55 -35 17 -17 35 -30 39 -30 5 0 32 -23 60 -50 28 -28 55 -50 60 -50 5 0 23 -14 41 -30 17 -17 41 -30 52 -30 12 0 27 -5 33 -11 14 -14 47 6 65 40 7 14 34 47 61 74 26 27 47 55 47 63 0 35 51 11 123 -59 27 -26 53 -47 58 -47 6 0 20 -9 31 -20 12 -11 27 -19 33 -17 14 5 19 77 6 90 -6 6 -11 44 -11 83 0 40 -4 76 -10 79 -5 3 -10 35 -10 70 0 35 -4 67 -10 70 -5 3 -10 39 -10 79 0 39 -4 76 -9 82 -5 5 -11 25 -13 44 l-3 35 -195 3 c-109 1 -199 7 -204 12 -6 6 -153 10 -381 10 -228 0 -375 4 -381 10 -5 5 -93 11 -198 12 l-189 3 -44 85 c-24 46 -47 87 -52 90 -4 3 -19 31 -35 63 -15 31 -33 63 -39 70 -7 6 -30 48 -52 92 l-40 80 -97 49 c-54 27 -104 46 -113 43 -10 -5 -15 -20 -15 -51 0 -25 -4 -48 -10 -51 -6 -3 -10 -44 -10 -90 0 -46 -4 -87 -10 -90 -6 -3 -10 -43 -10 -89 0 -45 -4 -86 -9 -92 -5 -5 -11 -22 -13 -39 -3 -30 -3 -30 -68 -30 l-65 0 -3 50 c-2 28 -7 54 -13 59 -5 6 -9 65 -9 132 0 71 -4 125 -10 129 -5 3 -10 35 -10 70 0 61 -1 64 -32 79 -17 9 -44 16 -59 16 -15 0 -31 5 -34 10 -11 17 -60 11 -83 -10 -12 -11 -25 -20 -30 -20 -23 0 -62 -54 -62 -86 0 -18 -4 -36 -10 -39 -5 -3 -10 -30 -10 -60 0 -30 -4 -57 -10 -60 -5 -3 -10 -33 -10 -66 0 -32 -4 -67 -9 -77 -5 -9 -12 -25 -15 -34 -5 -16 -20 -18 -130 -18 -72 0 -127 4 -131 10 -4 6 -115 10 -300 10 -185 0 -296 4 -300 10 -4 6 -115 10 -300 10 -185 0 -296 4 -300 10 -4 6 -67 10 -156 10 l-150 0 -44 45 c-25 24 -45 49 -45 54 0 5 -31 41 -70 80 -38 39 -70 75 -70 79 0 5 -8 17 -17 28 -10 11 -23 29 -29 39 -15 28 -64 53 -101 54 -17 1 -35 6 -38 11 -3 6 -14 10 -25 10 -13 0 -31 -26 -64 -93 -25 -50 -46 -97 -46 -104 0 -14 -41 -94 -57 -110 -20 -21 -23 -15 -23 41 0 30 -4 58 -10 61 -5 3 -10 44 -10 90 0 46 -4 87 -10 90 -5 3 -10 14 -10 24 0 44 -29 73 -116 117 -48 24 -94 44 -100 44 -14 0 -44 -55 -44 -81 0 -10 -4 -21 -10 -24 -5 -3 -10 -17 -10 -30 0 -13 -4 -27 -10 -30 -5 -3 -10 -17 -10 -30 0 -13 -4 -27 -10 -30 -5 -3 -10 -21 -10 -40 0 -19 -4 -37 -10 -40 -5 -3 -10 -17 -10 -30 0 -13 -4 -27 -10 -30 -5 -3 -10 -17 -10 -31 0 -21 -4 -24 -39 -24 -22 0 -43 5 -46 10 -3 6 -17 10 -30 10 -13 0 -27 5 -30 10 -3 6 -17 10 -30 10 -13 0 -27 5 -30 10 -3 6 -15 10 -25 10 -11 0 -35 9 -55 20 -20 11 -44 20 -55 20 -10 0 -22 5 -25 10 -3 6 -17 10 -30 10 -13 0 -27 5 -30 10 -3 6 -17 10 -30 10 -13 0 -27 5 -30 10 -3 6 -17 10 -30 10 -13 0 -27 5 -30 10 -3 6 -17 10 -29 10 -37 0 -69 39 -125 153 -29 59 -58 113 -64 120 -25 25 -117 223 -117 250 0 17 12 39 30 59 17 17 30 35 30 40 0 12 46 58 58 58 5 0 28 18 51 40 22 22 45 40 50 40 5 0 31 21 58 48 27 26 61 53 76 61 15 8 27 18 27 23 0 4 24 8 54 8 30 0 58 5 61 10 4 6 55 10 120 10 65 0 116 4 120 10 4 6 55 10 120 10 65 0 116 4 120 10 3 6 46 10 95 10 49 0 92 -4 95 -10 3 -5 39 -10 80 -10 41 0 77 -4 80 -10 3 -5 44 -10 90 -10 46 0 87 -4 90 -10 3 -5 39 -10 80 -10 41 0 77 -4 80 -10 3 -5 39 -10 79 -10 39 0 77 -5 83 -11 13 -13 105 -8 110 6 2 6 -6 21 -17 33 -11 11 -20 25 -20 31 0 5 -22 32 -50 60 -27 28 -50 55 -50 60 0 5 -23 32 -50 60 -27 28 -50 55 -50 60 0 5 -21 31 -47 58 -27 27 -54 60 -61 74 -15 28 -82 69 -112 69 -11 0 -22 5 -25 10 -3 6 -17 10 -30 10 -13 0 -27 5 -30 10 -3 6 -17 10 -30 10 -13 0 -27 5 -30 10 -3 6 -17 10 -30 10 -13 0 -27 5 -30 10 -3 6 -17 10 -30 10 -13 0 -27 5 -30 10 -3 6 -17 10 -30 10 -13 0 -27 5 -30 10 -3 6 -17 10 -30 10 -13 0 -27 5 -30 10 -3 6 -17 10 -30 10 -13 0 -27 5 -30 10 -3 6 -17 10 -30 10 -13 0 -27 5 -30 10 -3 6 -17 10 -30 10 -13 0 -27 5 -30 10 -3 6 -35 10 -70 10 -35 0 -67 5 -70 10 -3 6 -48 10 -100 10 -52 0 -97 4 -100 10 -3 6 -48 10 -100 10 -52 0 -97 4 -100 10 -3 6 -46 10 -95 10 -49 0 -92 -4 -95 -10z m4467 -3902 c12 -7 37 -27 55 -45 48 -47 45 -81 -12 -138 -38 -39 -50 -45 -85 -45 -35 0 -47 6 -85 45 -57 57 -60 91 -12 138 60 58 96 69 139 45z m-1060 -20 c28 -16 40 -28 56 -56 27 -48 4 -105 -56 -139 -48 -28 -105 -5 -139 55 -46 80 59 185 139 140z"/>
 </g>

</svg>