<!DOCTYPE svg PUBLIC "-//W3C//DTD SVG 20010904//EN" "http://www.w3.org/TR/2001/REC-SVG-20010904/DTD/svg10.dtd">
<svg version="1.0" xmlns="http://www.w3.org/2000/svg" width="399px" height="245px" viewBox="0 0 3990 2450" preserveAspectRatio="xMidYMid meet">
<g id="layer1" fill="#000000" stroke="none">
 <path d="M1205 2286 c-44 -14 -73 -48 -94 -114 -19 -57 -3 -91 65 -136 48 -32 54 -40 54 -70 0 -19 3 -41 6 -50 4 -11 -26 -31 -124 -80 -173 -87 -187 -104 -207 -257 -18 -133 -31 -156 -80 -138 -26 10 -37 8 -81 -14 -58 -29 -53 -12 -74 -242 -8 -86 -9 -148 -1 -214 14 -126 11 -130 -76 -119 -118 16 -211 7 -279 -27 l-59 -30 -62 -180 c-63 -185 -75 -255 -50 -289 13 -17 19 -18 81 -7 42 7 100 9 153 5 l84 -7 37 -45 c20 -25 55 -66 78 -90 l41 -45 81 12 c46 7 112 9 154 5 41 -3 99 -1 133 5 58 10 63 14 137 93 42 46 101 121 129 168 29 47 88 135 131 195 77 109 80 111 163 153 70 35 152 59 468 138 l382 96 200 -7 c175 -6 215 -11 320 -37 105 -26 131 -29 205 -24 l85 6 54 -37 c49 -36 57 -48 126 -190 l73 -152 11 -127 c11 -129 19 -156 38 -132 15 19 67 161 88 240 l18 67 -27 108 c-23 91 -39 127 -102 235 -41 70 -74 130 -74 133 0 3 24 38 54 78 30 40 66 97 81 127 l28 54 -17 161 c-19 197 -16 224 34 264 33 27 39 38 45 83 6 47 1 71 -41 198 -27 81 -58 154 -69 166 -28 28 -109 38 -205 24 -66 -9 -78 -14 -102 -42 -15 -17 -49 -43 -75 -57 -46 -25 -48 -28 -48 -71 l0 -45 67 -32 c78 -38 94 -69 61 -125 -32 -54 -122 -84 -284 -92 l-134 -7 -152 55 c-102 37 -220 69 -360 100 -253 54 -396 66 -518 42 -111 -22 -115 -22 -115 14 0 46 -34 103 -79 134 -34 24 -41 34 -41 62 0 53 -55 89 -166 108 -102 18 -115 18 -169 2z"/>
 </g>

</svg>